<svg id="icons" height="512" viewBox="0 0 64 64" width="512" xmlns="http://www.w3.org/2000/svg"><g><path d="m34.9996 51v7h-34v-7a6.99488 6.99488 0 0 1 7-7h4l3 2 3-1 3 1 3-2h4a6.99488 6.99488 0 0 1 7 7z" fill="#5d9cec"/><path d="m7.9996 20-3 3v-5a11.99669 11.99669 0 0 1 12-12h8v4a5.99835 5.99835 0 0 1 6 6v7l-3-3a27.83321 27.83321 0 0 1 -10 2 27.83321 27.83321 0 0 1 -10-2z" fill="#965353"/><path d="m56.3796 47.95a1.50083 1.50083 0 1 1 -2.05.55 1.50363 1.50363 0 0 1 2.05-.55z" fill="#656d78"/><path d="m61.9996 6v23h-18l-5 3v-3h-3v-23zm-9.85 12.66 3.16-3.08-4.36-.63-1.95-3.95-1.95 3.95-4.36.63 3.16 3.08-.75 4.34 3.9-2.05 3.9 2.05z" fill="#ed5565"/><path d="m23.9996 38.54v5.46l-3 2-3-1-3 1-3-2v-5.46a13.05877 13.05877 0 0 0 12 0z" fill="#87bcf4"/><circle cx="50" cy="39.5" fill="#656d78" r="1.5"/><path d="m55.31 15.58-3.16 3.08.75 4.34-3.9-2.05-3.9 2.05.75-4.34-3.16-3.08 4.36-.63 1.95-3.95 1.95 3.95z" fill="#ffce54"/><circle cx="50" cy="52.5" fill="#656d78" r="1.5"/><path d="m61.9996 46a12 12 0 1 1 -12-12 11.99669 11.99669 0 0 1 12 12zm-5.62-1.95a1.50083 1.50083 0 1 0 -2.05-.55 1.50363 1.50363 0 0 0 2.05.55zm.55 5.95a1.50083 1.50083 0 1 0 -2.05.55 1.50363 1.50363 0 0 0 2.05-.55zm-5.43-10.5a1.5 1.5 0 1 0 -1.5 1.5 1.498 1.498 0 0 0 1.5-1.5zm0 13a1.5 1.5 0 1 0 -1.5 1.5 1.498 1.498 0 0 0 1.5-1.5zm-5.83-9a1.50083 1.50083 0 1 0 -2.05.55 1.50127 1.50127 0 0 0 2.05-.55zm-.55 7.05a1.50083 1.50083 0 1 0 -2.05-.55 1.50127 1.50127 0 0 0 2.05.55z" fill="#e6e9ed"/><g fill="#656d78"><path d="m56.9296 42a1.50083 1.50083 0 1 1 -2.05-.55 1.50363 1.50363 0 0 1 2.05.55z"/><path d="m45.6696 48.5a1.50083 1.50083 0 1 1 -2.05-.55 1.50127 1.50127 0 0 1 2.05.55z"/><path d="m45.1196 41.45a1.50083 1.50083 0 1 1 -2.05.55 1.50127 1.50127 0 0 1 2.05-.55z"/></g><path d="m23.9996 38.54a13 13 0 0 1 -19-11.54v-4l3-3a27.83321 27.83321 0 0 0 10 2 27.83321 27.83321 0 0 0 10-2l3 3v4a13.00217 13.00217 0 0 1 -7 11.54z" fill="#eac6bb"/></g><g><path d="m35 52a.99943.99943 0 0 1 -1-1 6.00657 6.00657 0 0 0 -6-6 1 1 0 0 1 0-2 8.00917 8.00917 0 0 1 8 8 .99943.99943 0 0 1 -1 1z"/><path d="m28 45h-.001l-4-.002a1 1 0 0 1 .001-2h.001l4 .002a1 1 0 0 1 -.001 2z"/><path d="m35 59a.99943.99943 0 0 1 -1-1v-7a1 1 0 0 1 2 0v7a.99943.99943 0 0 1 -1 1z"/><path d="m1.001 51.99805a1.00005 1.00005 0 0 1 -1-1 7.99372 7.99372 0 0 1 8-8 1 1 0 0 1 0 2 5.99489 5.99489 0 0 0 -6 6 1.00006 1.00006 0 0 1 -1 1z"/><path d="m8.001 45a1 1 0 0 1 -.001-2l4-.002h.001a1 1 0 0 1 .001 2l-4 .002z"/><path d="m1 58.99805a1.00006 1.00006 0 0 1 -1-1l.001-7a1 1 0 0 1 1-1 1.00005 1.00005 0 0 1 1 1l-.001 7a1.00005 1.00005 0 0 1 -1 1z"/><path d="m12.001 44.99805a1.00005 1.00005 0 0 1 -1-1l-.001-5.46289a1 1 0 0 1 2 0l.001 5.46289a1.00006 1.00006 0 0 1 -1 1z"/><path d="m24 44.99609a.99942.99942 0 0 1 -1-1v-5.46093a1 1 0 0 1 2 0v5.46093a.99942.99942 0 0 1 -1 1z"/><path d="m18 41a14.01572 14.01572 0 0 1 -14-14 1 1 0 0 1 2 0 12 12 0 0 0 24 0 1 1 0 0 1 2 0 14.01572 14.01572 0 0 1 -14 14z"/><path d="m5 28a.99943.99943 0 0 1 -1-1v-9a1 1 0 0 1 2 0v9a.99943.99943 0 0 1 -1 1z"/><path d="m31 28a.99943.99943 0 0 1 -1-1v-11a1 1 0 0 1 2 0v11a.99943.99943 0 0 1 -1 1z"/><path d="m31 17a.99943.99943 0 0 1 -1-1 5.00588 5.00588 0 0 0 -5-5 1 1 0 0 1 0-2 7.00849 7.00849 0 0 1 7 7 .99943.99943 0 0 1 -1 1z"/><path d="m25 11a.99943.99943 0 0 1 -1-1v-4a1 1 0 0 1 2 0v4a.99943.99943 0 0 1 -1 1z"/><path d="m25 7h-8a1 1 0 0 1 0-2h8a1 1 0 0 1 0 2z"/><path d="m4.999 19a.99943.99943 0 0 1 -1-1 13.01526 13.01526 0 0 1 13.001-13 1 1 0 0 1 0 2 11.01265 11.01265 0 0 0 -11.001 11 .99942.99942 0 0 1 -1 1z"/><g><path d="m31 24a.99676.99676 0 0 1 -.707-.293l-3-3a.99989.99989 0 0 1 1.414-1.414l3 3a1 1 0 0 1 -.707 1.707z"/><path d="m18 23a28.6249 28.6249 0 0 1 -10.40039-2.084.9997.9997 0 0 1 .80078-1.832 27.09566 27.09566 0 0 0 9.59961 1.916 26.96125 26.96125 0 0 0 9.59961-1.916.9997.9997 0 1 1 .80078 1.832 28.6249 28.6249 0 0 1 -10.40039 2.084z"/><path d="m4.999 24a1 1 0 0 1 -.707-1.707l3.001-3a.99989.99989 0 0 1 1.414 1.414l-3.001 3a.99676.99676 0 0 1 -.707.293z"/></g><path d="m14.999 47a1.00249 1.00249 0 0 1 -.55468-.168l-2.999-2.002a1.00052 1.00052 0 0 1 1.11132-1.664l2.999 2.00195a1.00011 1.00011 0 0 1 -.55664 1.83205z"/><path d="m15 47a1 1 0 0 1 -.31738-1.94824l3-1.00391a.99995.99995 0 0 1 .63476 1.89649l-3 1.0039a.99965.99965 0 0 1 -.31738.05176z"/><path d="m21.001 47a1 1 0 0 1 -.55567-1.832l3-2.00195a1 1 0 0 1 1.10938 1.66406l-3 2.002a.99709.99709 0 0 1 -.55371.16789z"/><path d="m21 47a.99965.99965 0 0 1 -.31738-.05176l-3-1.0039a.99995.99995 0 0 1 .63476-1.89649l3 1.00391a1 1 0 0 1 -.31738 1.94824z"/><path d="m18.01953 51a1 1 0 0 1 -.00976-2h.00976a1 1 0 1 1 0 2z"/><path d="m18.01953 56a1 1 0 0 1 -.00976-2h.00976a1 1 0 1 1 0 2z"/><path d="m39 33a1.00088 1.00088 0 0 1 -1-1v-2h-2a.99943.99943 0 0 1 -1-1v-23a.99943.99943 0 0 1 1-1h26a.99943.99943 0 0 1 1 1v23a.99943.99943 0 0 1 -1 1h-17.72363l-4.76172 2.85742a1.00049 1.00049 0 0 1 -.51465.14258zm-2-5h2a.99943.99943 0 0 1 1 1v1.2334l3.48438-2.09082a.99437.99437 0 0 1 .51462-.14258h17.001v-21h-24z"/><path d="m45.09766 24a1.00045 1.00045 0 0 1 -.98536-1.16992l.65821-3.82129-2.77637-2.709a.9994.9994 0 0 1 .55469-1.70507l3.83887-.55762 1.71582-3.47949a1.04012 1.04012 0 0 1 1.793 0l1.71582 3.47949 3.83887.55762a.9994.9994 0 0 1 .55469 1.70507l-2.77734 2.71.65234 3.82226a.99912.99912 0 0 1 -1.45117 1.05274l-3.42973-1.80374-3.4375 1.80469a1.00627 1.00627 0 0 1 -.46484.11426zm3.90234-4.04883a.99641.99641 0 0 1 .46582.11524l2.10352 1.10644-.40034-2.34472a.99874.99874 0 0 1 .2871-.88379l1.70313-1.66211-2.35449-.3418a.99821.99821 0 0 1 -.75293-.54688l-1.05181-2.13281-1.05176 2.13281a.99821.99821 0 0 1 -.75293.54688l-2.35449.3418 1.70318 1.66211a1.00163 1.00163 0 0 1 .2871.88574l-.40332 2.34277 2.10743-1.10742a1.00334 1.00334 0 0 1 .46479-.11426z"/><g><path d="m50 59a13 13 0 1 1 13-13 13.01505 13.01505 0 0 1 -13 13zm0-24a11 11 0 1 0 11 11 11.01245 11.01245 0 0 0 -11-11z"/><path d="m50 42a2.501 2.501 0 1 1 2.501-2.501 2.504 2.504 0 0 1 -2.501 2.501zm0-3.002a.501.501 0 1 0 .501.501.50138.50138 0 0 0 -.501-.50095z"/><path d="m50 55.002a2.501 2.501 0 1 1 2.501-2.501 2.504 2.504 0 0 1 -2.501 2.501zm0-3.002a.501.501 0 1 0 .501.501.50138.50138 0 0 0 -.501-.501z"/><path d="m44.36621 45.25a2.50107 2.50107 0 1 1 1.25488-4.667l.001.001a2.501 2.501 0 0 1 -1.25586 4.666zm.00586-3.002a.50125.50125 0 1 0 .43164.752.501.501 0 0 0 -.43164-.752z"/><path d="m55.625 51.751a2.50107 2.50107 0 1 1 1.25586-4.667l.001.001a2.50054 2.50054 0 0 1 -1.25686 4.666zm.00684-3.001a.50038.50038 0 1 0 .249.06641.4985.4985 0 0 0 -.249-.06641z"/><path d="m44.375 51.751a2.50067 2.50067 0 0 1 -1.25586-4.666l.001-.001a2.50132 2.50132 0 1 1 1.25486 4.667zm-.25391-2.93555a.50149.50149 0 1 0 .6836.18555.50295.50295 0 0 0 -.6836-.18555z"/><path d="m55.63477 45.25a2.50066 2.50066 0 0 1 -1.25586-4.666l.001-.001a2.50131 2.50131 0 1 1 1.25489 4.667zm-.25391-2.93555a.50135.50135 0 1 0 .68359.18457.50294.50294 0 0 0 -.68359-.18457z"/><path d="m62 54a.99943.99943 0 0 1 -1-1v-7a1 1 0 0 1 2 0v7a.99943.99943 0 0 1 -1 1z"/><path d="m63 55a2.0026 2.0026 0 0 1 -2-2 1 1 0 0 1 2 0v.002a.999.999 0 1 1 0 1.998z"/><path d="m50.01953 47a1 1 0 0 1 -.00976-2h.00976a1 1 0 0 1 0 2z"/></g></g></svg>